<svg xmlns="http://www.w3.org/2000/svg" width="149.767" height="28.445" viewBox="0 0 149.767 28.445">
  <g id="Group_3718" data-name="Group 3718" transform="translate(3142 -362)">
    <g id="Group_3716" data-name="Group 3716" transform="translate(-3142 363.561)">
      <path id="Path_447" data-name="Path 447" d="M148.668-366.049H169.7v9.874H135.3v-9.874h9.671l13.316-7.136H135.3v-9.874h34.4v9.874Z" transform="translate(-135.301 383.059)" fill="#fff"/>
      <rect id="Rectangle_1311" data-name="Rectangle 1311" width="22.871" height="9.874" transform="translate(0 0)" fill="#6300ff"/>
      <rect id="Rectangle_1312" data-name="Rectangle 1312" width="20.93" height="9.874" transform="translate(13.474 17.01)" fill="#f40"/>
    </g>
    <g id="Group_3717" data-name="Group 3717" transform="translate(-3097.236 362)">
      <path id="Path_448" data-name="Path 448" d="M303.455-343.618v-3.846l6.99-8.026q1.721-1.967,2.547-2.793-.861.053-2.265.071l-6.586.035v-4.092h15.421v3.5l-7.131,8.22-2.511,2.722q2.055-.123,2.547-.123h7.64v4.338Z" transform="translate(-303.455 369.366)" fill="#fff"/>
      <path id="Path_449" data-name="Path 449" d="M377.194-350.717l4.918.826a8.067,8.067,0,0,1-2.994,4.118,8.8,8.8,0,0,1-5.12,1.414q-4.865,0-7.2-3.179a10.679,10.679,0,0,1-1.844-6.428,10.3,10.3,0,0,1,2.424-7.262,7.982,7.982,0,0,1,6.129-2.626,8.28,8.28,0,0,1,6.569,2.749q2.406,2.749,2.3,8.421H370.01a4.992,4.992,0,0,0,1.194,3.416,3.735,3.735,0,0,0,2.845,1.221,3.023,3.023,0,0,0,1.95-.632A3.905,3.905,0,0,0,377.194-350.717Zm.281-4.988a4.752,4.752,0,0,0-1.107-3.258,3.4,3.4,0,0,0-2.564-1.115,3.429,3.429,0,0,0-2.67,1.177,4.555,4.555,0,0,0-1.036,3.2Z" transform="translate(-348.581 370.528)" fill="#fff"/>
      <path id="Path_450" data-name="Path 450" d="M437.508-357.742l-4.478-.808a6.975,6.975,0,0,1,2.6-4,9.512,9.512,0,0,1,5.48-1.3,11.815,11.815,0,0,1,4.918.782,4.908,4.908,0,0,1,2.274,1.985,10.18,10.18,0,0,1,.659,4.417l-.053,5.761a20.019,20.019,0,0,0,.237,3.627,10.574,10.574,0,0,0,.887,2.5h-4.883q-.193-.492-.474-1.458-.123-.438-.176-.579a8.9,8.9,0,0,1-2.7,1.844,7.747,7.747,0,0,1-3.073.615,6.356,6.356,0,0,1-4.54-1.563,5.2,5.2,0,0,1-1.66-3.952,5.305,5.305,0,0,1,.755-2.819,4.931,4.931,0,0,1,2.117-1.9,16.53,16.53,0,0,1,3.925-1.151,26.849,26.849,0,0,0,4.795-1.212v-.492a2.556,2.556,0,0,0-.7-2.029,4.21,4.21,0,0,0-2.652-.606,3.532,3.532,0,0,0-2.055.518A3.6,3.6,0,0,0,437.508-357.742Zm6.6,4a30.834,30.834,0,0,1-3,.755,9.048,9.048,0,0,0-2.687.86,2.059,2.059,0,0,0-.966,1.739,2.418,2.418,0,0,0,.773,1.791,2.7,2.7,0,0,0,1.967.755,4.271,4.271,0,0,0,2.547-.878,3.089,3.089,0,0,0,1.177-1.633,9.758,9.758,0,0,0,.193-2.406Z" transform="translate(-398.162 370.528)" fill="#fff"/>
      <path id="Path_451" data-name="Path 451" d="M503.649-363.176v-25.748h4.935v9.273a6.984,6.984,0,0,1,5.41-2.6,7.273,7.273,0,0,1,5.638,2.468q2.231,2.468,2.231,7.087,0,4.778-2.274,7.359a7.1,7.1,0,0,1-5.524,2.582,6.829,6.829,0,0,1-3.153-.8,7.535,7.535,0,0,1-2.678-2.362v2.74Zm4.9-9.73a7.931,7.931,0,0,0,.913,4.286,3.9,3.9,0,0,0,3.407,1.967,3.491,3.491,0,0,0,2.784-1.4,6.871,6.871,0,0,0,1.15-4.4,7.285,7.285,0,0,0-1.159-4.61,3.669,3.669,0,0,0-2.968-1.414,3.719,3.719,0,0,0-2.951,1.379A6.33,6.33,0,0,0,508.549-372.907Z" transform="translate(-450.356 388.924)" fill="#fff"/>
      <path id="Path_452" data-name="Path 452" d="M590.857-343.618v-2.792a7.184,7.184,0,0,1-2.678,2.354,7.509,7.509,0,0,1-3.5.861,6.849,6.849,0,0,1-3.372-.826,4.871,4.871,0,0,1-2.161-2.318,10.348,10.348,0,0,1-.667-4.127v-11.8h4.935v8.571a23.77,23.77,0,0,0,.272,4.821,2.627,2.627,0,0,0,.992,1.405,3.047,3.047,0,0,0,1.826.518,3.883,3.883,0,0,0,2.266-.694,3.529,3.529,0,0,0,1.37-1.721,19.971,19.971,0,0,0,.369-5.032v-7.868h4.935v18.652Z" transform="translate(-505.263 369.366)" fill="#fff"/>
      <path id="Path_453" data-name="Path 453" d="M657.441-344.78h-4.935v-18.652h4.584v2.652a7.967,7.967,0,0,1,2.116-2.476,3.893,3.893,0,0,1,2.134-.6,6.264,6.264,0,0,1,3.249.931l-1.528,4.3a4.335,4.335,0,0,0-2.318-.808,2.739,2.739,0,0,0-1.756.571,3.9,3.9,0,0,0-1.133,2.064,29.313,29.313,0,0,0-.413,6.252Z" transform="translate(-559.586 370.528)" fill="#fff"/>
    </g>
  </g>
</svg>
